<svg width="5" height="9" viewBox="0 0 5 9" fill="none" xmlns="http://www.w3.org/2000/svg">
<path d="M0.900822 0.15759C0.805387 0.0602752 0.676227 0.00387314 0.540385 0.000192152C0.404544 -0.00348884 0.272554 0.0458366 0.172049 0.137841C0.0715442 0.229846 0.0103183 0.357396 0.00118971 0.493787C-0.00793886 0.630177 0.035738 0.764832 0.123076 0.869559L0.153596 0.903437L3.72975 4.52919L0.156754 8.09486C0.0632854 8.18814 0.00797558 8.31328 0.00174046 8.44557C-0.00449419 8.57787 0.0387993 8.70771 0.123076 8.80947L0.153596 8.84361C0.24636 8.9376 0.370778 8.99319 0.502292 8.99941C0.633807 9.00564 0.762862 8.96204 0.863986 8.87723L0.897928 8.84653L4.84454 4.9082C4.93797 4.81488 4.99323 4.68973 4.99942 4.55743C5.0056 4.42513 4.96227 4.29531 4.87795 4.19358L4.84743 4.15944L0.900822 0.15759Z" fill="#282D37"/>
</svg>
