<svg width="5" height="9" viewBox="0 0 5 9" fill="none" xmlns="http://www.w3.org/2000/svg">
<path d="M4.09918 0.15759C4.19461 0.0602752 4.32377 0.00387314 4.45962 0.000192152C4.59546 -0.00348884 4.72745 0.0458366 4.82795 0.137841C4.92846 0.229846 4.98968 0.357396 4.99881 0.493787C5.00794 0.630177 4.96426 0.764832 4.87692 0.869559L4.8464 0.903437L1.27025 4.52919L4.84325 8.09486C4.93671 8.18814 4.99202 8.31328 4.99826 8.44557C5.00449 8.57787 4.9612 8.70771 4.87692 8.80947L4.8464 8.84361C4.75364 8.9376 4.62922 8.99319 4.49771 8.99941C4.36619 9.00564 4.23714 8.96204 4.13601 8.87723L4.10207 8.84653L0.15546 4.9082C0.0620297 4.81488 0.00677109 4.68973 0.000584602 4.55743C-0.00560189 4.42513 0.0377302 4.29531 0.122049 4.19358L0.152569 4.15944L4.09918 0.15759Z" fill="#282D37"/>
</svg>
