<svg width="18" height="10" viewBox="0 0 18 10" fill="none" xmlns="http://www.w3.org/2000/svg">
<path d="M8.89087 9.47705C8.73462 9.47705 8.58618 9.41455 8.47681 9.30517L0.371338 1.19971C0.142822 0.971191 0.142822 0.600098 0.371338 0.371582C0.599854 0.143066 0.970947 0.143066 1.19946 0.371582L8.89087 8.06299L16.5823 0.371582C16.8108 0.143066 17.1819 0.143066 17.4104 0.371582C17.6389 0.600098 17.6389 0.971191 17.4104 1.19971L9.30493 9.30517C9.19556 9.4165 9.04712 9.47705 8.89087 9.47705Z" fill="#A4A4A4" fill-opacity="0.8"/>
<path d="M16.5115 0.300781C16.779 0.0332132 17.2136 0.0332132 17.4812 0.300781C17.7488 0.568349 17.7488 1.00294 17.4812 1.27051L9.37573 9.37598C9.2472 9.50646 9.0732 9.57702 8.89136 9.57715C8.70828 9.57715 8.53392 9.50389 8.40601 9.37598L0.300537 1.27051C0.0329691 1.00294 0.0329691 0.568349 0.300537 0.300781C0.568105 0.0332132 1.0027 0.0332132 1.27026 0.300781L8.89038 7.9209L16.5115 0.300781Z" stroke="#A4A4A4" stroke-opacity="0.8" stroke-width="0.2"/>
</svg>
