<svg width="9" height="5" viewBox="0 0 9 5" fill="none" xmlns="http://www.w3.org/2000/svg">
<path d="M8.84241 0.900822C8.93972 0.805387 8.99613 0.676227 8.99981 0.540385C9.00349 0.404544 8.95416 0.272554 8.86216 0.172049C8.77015 0.0715442 8.6426 0.0103183 8.50621 0.0011897C8.36982 -0.00793887 8.23517 0.035738 8.13044 0.123076L8.09656 0.153596L4.47081 3.72975L0.905144 0.156753C0.811863 0.0632853 0.686723 0.00797548 0.554425 0.00174035C0.422129 -0.00449429 0.292286 0.0387992 0.190528 0.123076L0.156385 0.153596C0.062399 0.24636 0.00680834 0.370777 0.00058561 0.502292C-0.00563712 0.633807 0.0379601 0.762862 0.122772 0.863986L0.153474 0.897928L4.0918 4.84454C4.18512 4.93797 4.31027 4.99323 4.44257 4.99942C4.57487 5.0056 4.70469 4.96227 4.80642 4.87795L4.84056 4.84743L8.84241 0.900822Z" fill="#A4A4A4"/>
</svg>
