<svg width="12" height="12" viewBox="0 0 12 12" fill="none" xmlns="http://www.w3.org/2000/svg">
<path d="M5.13509 11.8365C5.03013 11.9117 4.90979 11.9627 4.78274 11.9859C4.65568 12.009 4.52508 12.0037 4.40034 11.9702C4.2756 11.9368 4.15982 11.8762 4.06136 11.7926C3.96289 11.709 3.88418 11.6047 3.8309 11.487C3.70284 11.2044 3.48946 10.969 3.22073 10.8139C2.95199 10.6587 2.64141 10.5917 2.33262 10.6221C2.20412 10.6348 2.07441 10.6188 1.95285 10.5752C1.83128 10.5317 1.72088 10.4618 1.62959 10.3705C1.5383 10.2792 1.4684 10.1687 1.42492 10.0472C1.38144 9.92559 1.36546 9.79588 1.37814 9.66738C1.40857 9.35856 1.34148 9.04796 1.1863 8.77922C1.03112 8.51048 0.795647 8.29712 0.512961 8.1691C0.395321 8.11582 0.290964 8.03711 0.207407 7.93864C0.12385 7.84018 0.0631741 7.7244 0.0297511 7.59966C-0.00367183 7.47492 -0.00900984 7.34432 0.0141217 7.21726C0.0372532 7.09021 0.0882783 6.96987 0.163521 6.86491C0.344233 6.61272 0.441413 6.31026 0.441413 6C0.441413 5.68975 0.344233 5.38728 0.163521 5.13509C0.0882783 5.03013 0.0372532 4.90979 0.0141217 4.78274C-0.00900984 4.65568 -0.00367183 4.52508 0.0297511 4.40034C0.0631741 4.2756 0.12385 4.15982 0.207407 4.06136C0.290964 3.96289 0.395321 3.88418 0.512961 3.8309C0.795597 3.70284 1.03102 3.48946 1.18615 3.22073C1.34128 2.95199 1.40832 2.64141 1.37787 2.33262C1.36523 2.20412 1.38124 2.07441 1.42476 1.95285C1.46827 1.83128 1.5382 1.72088 1.62952 1.62959C1.72083 1.5383 1.83125 1.4684 1.95283 1.42492C2.07441 1.38144 2.20412 1.36546 2.33262 1.37814C2.64144 1.40857 2.95204 1.34148 3.22078 1.1863C3.48952 1.03112 3.70289 0.795647 3.8309 0.512961C3.88418 0.395321 3.96289 0.290964 4.06136 0.207407C4.15982 0.12385 4.2756 0.0631741 4.40034 0.0297511C4.52508 -0.00367183 4.65568 -0.00900984 4.78274 0.0141217C4.90979 0.0372532 5.03013 0.0882783 5.13509 0.163521C5.38728 0.344233 5.68975 0.441413 6 0.441413C6.31026 0.441413 6.61272 0.344233 6.86491 0.163521C6.96987 0.0882783 7.09021 0.0372532 7.21726 0.0141217C7.34432 -0.00900984 7.47492 -0.00367183 7.59966 0.0297511C7.7244 0.0631741 7.84018 0.12385 7.93864 0.207407C8.03711 0.290964 8.11582 0.395321 8.1691 0.512961C8.29716 0.795597 8.51054 1.03102 8.77927 1.18615C9.04801 1.34128 9.35859 1.40832 9.66738 1.37787C9.79588 1.36523 9.92559 1.38124 10.0472 1.42476C10.1687 1.46827 10.2791 1.5382 10.3704 1.62952C10.4617 1.72083 10.5316 1.83125 10.5751 1.95283C10.6186 2.07441 10.6345 2.20412 10.6219 2.33262C10.5914 2.64144 10.6585 2.95204 10.8137 3.22078C10.9689 3.48952 11.2044 3.70289 11.487 3.8309C11.6047 3.88418 11.709 3.96289 11.7926 4.06136C11.8762 4.15982 11.9368 4.2756 11.9702 4.40034C12.0037 4.52508 12.009 4.65568 11.9859 4.78274C11.9627 4.90979 11.9117 5.03013 11.8365 5.13509C11.6558 5.38728 11.5586 5.68975 11.5586 6C11.5586 6.31026 11.6558 6.61272 11.8365 6.86491C11.9117 6.96987 11.9627 7.09021 11.9859 7.21726C12.009 7.34432 12.0037 7.47492 11.9702 7.59966C11.9368 7.7244 11.8762 7.84018 11.7926 7.93864C11.709 8.03711 11.6047 8.11582 11.487 8.1691C11.2044 8.29716 10.969 8.51054 10.8139 8.77927C10.6587 9.04801 10.5917 9.35859 10.6221 9.66738C10.6348 9.79588 10.6188 9.92559 10.5752 10.0472C10.5317 10.1687 10.4618 10.2791 10.3705 10.3704C10.2792 10.4617 10.1687 10.5316 10.0472 10.5751C9.92559 10.6186 9.79588 10.6345 9.66738 10.6219C9.35856 10.5914 9.04796 10.6585 8.77922 10.8137C8.51048 10.9689 8.29712 11.2044 8.1691 11.487C8.11582 11.6047 8.03711 11.709 7.93864 11.7926C7.84018 11.8762 7.7244 11.9368 7.59966 11.9702C7.47492 12.0037 7.34432 12.009 7.21726 11.9859C7.09021 11.9627 6.96987 11.9117 6.86491 11.8365C6.61272 11.6558 6.31026 11.5586 6 11.5586C5.68975 11.5586 5.38728 11.6558 5.13509 11.8365Z" fill="currentColor"/>
<path d="M8.92585 3.73474C8.99736 3.65151 9.09373 3.60336 9.19501 3.60026C9.29629 3.59716 9.39471 3.63934 9.46991 3.71808C9.54511 3.79682 9.59132 3.90608 9.59897 4.02324C9.60662 4.1404 9.57513 4.25649 9.51101 4.34746L9.48391 4.38225L6.13501 8.26606C6.06594 8.34615 5.97372 8.39369 5.87618 8.3995C5.77864 8.4053 5.68271 8.36896 5.60694 8.29749L5.57694 8.26606L3.71647 6.10873C3.64461 6.02585 3.60299 5.91408 3.60024 5.79659C3.59749 5.6791 3.63383 5.56489 3.70171 5.47761C3.76959 5.39034 3.86382 5.33669 3.96487 5.32779C4.06593 5.31889 4.16607 5.35541 4.24454 5.42979L4.27453 5.46122L5.85584 7.2948L8.92585 3.73505V3.73474Z" fill="white"/>
</svg>
