<svg width="10" height="10" viewBox="0 0 10 10" fill="none" xmlns="http://www.w3.org/2000/svg">
<path d="M9.805 8.86367L5.94167 5.00033L9.805 1.13634C9.931 1.01034 10 0.843002 10 0.664669C10 0.487336 9.93067 0.320336 9.80533 0.195336C9.74382 0.133288 9.6706 0.0840714 9.58992 0.0505403C9.50924 0.0170092 9.4227 -0.000168918 9.33533 2.27548e-06C9.15667 2.27548e-06 8.98933 0.0693356 8.86367 0.195002L5 4.05833L1.13634 0.195002C1.07467 0.132995 1.00132 0.0838326 0.920534 0.050361C0.839744 0.0168893 0.753118 -0.000227115 0.66567 2.27548e-06C0.488003 2.27548e-06 0.321003 0.0693356 0.195003 0.195002C0.133001 0.256531 0.083836 0.329762 0.0503616 0.410443C0.0168872 0.491125 -0.000230034 0.577652 3.23097e-06 0.665002C3.23097e-06 0.843002 0.0690032 1.01034 0.195003 1.13634L4.059 5.00033L0.195003 8.86333C0.132956 8.92504 0.0837705 8.99844 0.0502976 9.07929C0.0168247 9.16014 -0.000270286 9.24683 3.23097e-06 9.33433C3.23097e-06 9.512 0.0693365 9.67933 0.195003 9.805C0.321003 9.93067 0.488003 10 0.66567 10C0.843336 10 1.01067 9.93067 1.13634 9.805L5.00033 5.94167L8.86367 9.805C8.98933 9.93067 9.157 10 9.33467 10C9.51267 10 9.67933 9.93067 9.80467 9.80533C9.92934 9.68036 9.99936 9.51103 9.99936 9.3345C9.99936 9.15797 9.92934 8.98864 9.80467 8.86367H9.805Z" fill="#A4A4A4"/>
</svg>
