<svg width="38" height="37" viewBox="0 0 38 37" fill="none" xmlns="http://www.w3.org/2000/svg">
<path d="M35.0767 31.3073V4.26821C35.0767 3.89111 34.9229 3.52946 34.649 3.26281C34.3751 2.99616 34.0037 2.84636 33.6164 2.84636H5.84657C5.84657 1.27386 7.15486 0 8.76986 0H35.0767C36.6917 0 38 1.27386 38 2.84636V28.4609C38 30.0334 36.6917 31.3073 35.0767 31.3073ZM32.1534 8.53907V34.1536C32.1534 35.7261 30.8451 37 29.2301 37H2.92329C2.14798 37 1.40443 36.7001 0.856211 36.1663C0.307988 35.6325 0 34.9085 0 34.1536V8.53907C0 6.96657 1.30829 5.69271 2.92329 5.69271H29.2301C30.8451 5.69271 32.1534 6.96657 32.1534 8.53907ZM26.3069 14.2318H5.84657C5.45928 14.2318 5.08785 14.3816 4.81399 14.6482C4.54014 14.9149 4.38629 15.2765 4.38629 15.6536C4.38629 16.0307 4.54014 16.3924 4.81399 16.659C5.08785 16.9257 5.45928 17.0755 5.84657 17.0755H26.3069C26.6941 17.0755 27.0656 16.9257 27.3394 16.659C27.6133 16.3924 27.7671 16.0307 27.7671 15.6536C27.7671 15.2765 27.6133 14.9149 27.3394 14.6482C27.0656 14.3816 26.6941 14.2318 26.3069 14.2318ZM26.3069 22.7682H5.84657C5.45928 22.7682 5.08785 22.918 4.81399 23.1847C4.54014 23.4513 4.38629 23.813 4.38629 24.1901C4.38629 24.5672 4.54014 24.9288 4.81399 25.1955C5.08785 25.4621 5.45928 25.6119 5.84657 25.6119H26.3069C26.6941 25.6119 27.0656 25.4621 27.3394 25.1955C27.6133 24.9288 27.7671 24.5672 27.7671 24.1901C27.7671 23.813 27.6133 23.4513 27.3394 23.1847C27.0656 22.918 26.6941 22.7682 26.3069 22.7682Z" fill="#00B6E6"/>
</svg>
