<svg width="17" height="12" viewBox="0 0 17 12" fill="none" xmlns="http://www.w3.org/2000/svg">
<path d="M8.5 0C4.11622 0 0 2.77691 0 5.54348C0 8.31004 4.11622 11.087 8.5 11.087C12.8838 11.087 17 8.31004 17 5.54348C17 2.77691 12.8838 0 8.5 0Z" fill="#A4A4A4"/>
<path d="M8.50019 2.4021C8.08767 2.4021 7.67919 2.48335 7.29807 2.64122C6.91695 2.79908 6.57065 3.03047 6.27895 3.32217C5.98726 3.61386 5.75587 3.96016 5.598 4.34128C5.44014 4.7224 5.35889 5.13088 5.35889 5.5434C5.35889 5.95593 5.44014 6.36441 5.598 6.74553C5.75587 7.12665 5.98726 7.47294 6.27895 7.76464C6.57065 8.05634 6.91695 8.28773 7.29807 8.44559C7.67919 8.60346 8.08767 8.68471 8.50019 8.68471C9.33332 8.68471 10.1323 8.35375 10.7214 7.76464C11.3105 7.17553 11.6415 6.37653 11.6415 5.5434C11.6415 4.71028 11.3105 3.91128 10.7214 3.32217C10.1323 2.73306 9.33332 2.4021 8.50019 2.4021ZM8.50019 3.51079C9.03927 3.51079 9.55627 3.72494 9.93746 4.10613C10.3187 4.48732 10.5328 5.00432 10.5328 5.5434C10.5328 6.08249 10.3187 6.59949 9.93746 6.98068C9.55627 7.36186 9.03927 7.57601 8.50019 7.57601C7.96111 7.57601 7.44411 7.36186 7.06292 6.98068C6.68173 6.59949 6.46758 6.08249 6.46758 5.5434C6.46758 5.00432 6.68173 4.48732 7.06292 4.10613C7.44411 3.72494 7.96111 3.51079 8.50019 3.51079Z" fill="white"/>
</svg>
