<svg width="18" height="15" viewBox="0 0 18 15" fill="none" xmlns="http://www.w3.org/2000/svg">
<path d="M18 6.73358C18 9.66288 13.6417 12.6031 9 12.6031C7.27435 12.6031 5.58822 12.197 4.15057 11.5357L6.62478 9.06184C6.9323 9.37661 7.29922 9.62722 7.70428 9.79916C8.10935 9.97111 8.5445 10.061 8.98454 10.0635C9.42458 10.0661 9.86076 9.98131 10.2678 9.81409C10.6748 9.64688 11.0447 9.40055 11.3558 9.08939C11.667 8.77823 11.9133 8.40842 12.0805 8.00138C12.2477 7.59434 12.3325 7.15816 12.3299 6.71812C12.3274 6.27808 12.2375 5.84293 12.0656 5.43786C11.8936 5.0328 11.643 4.66588 11.3283 4.35836L13.7849 1.90175C16.2489 3.01619 18 4.87684 18 6.73358ZM9 0.864014C10.242 0.864014 11.464 1.07454 12.5875 1.43923L10.3387 3.68806C9.72512 3.41784 9.04426 3.33934 8.38533 3.46283C7.7264 3.58633 7.12017 3.90606 6.64613 4.3801C6.17209 4.85415 5.85236 5.46037 5.72886 6.1193C5.60537 6.77823 5.68387 7.45909 5.95409 8.07262L3.06548 10.9605C1.224 9.84171 0 8.28628 0 6.73358C0 3.80428 4.35835 0.864014 9 0.864014ZM11.1522 6.73358C11.1522 7.16203 11.0243 7.58072 10.7848 7.93604C10.5454 8.29137 10.2054 8.56715 9.80835 8.72807C9.41127 8.889 8.9752 8.92774 8.55597 8.83934C8.13674 8.75095 7.75343 8.53943 7.45513 8.23188L10.4983 5.18871C10.9013 5.58001 11.1522 6.12745 11.1522 6.73358ZM9 4.58141C9.13891 4.58141 9.2747 4.59471 9.40657 4.61975L6.88617 7.13975C6.82633 6.82837 6.83603 6.50762 6.91458 6.20042C6.99313 5.89322 7.13859 5.60718 7.34056 5.36274C7.54252 5.11831 7.79601 4.92151 8.08288 4.78644C8.36975 4.65137 8.68292 4.58136 9 4.58141Z" fill="#A4A4A4"/>
<path d="M16.3086 0.20752C16.5853 0.484214 16.5853 0.760908 16.3086 1.0376L3.30396 14.0422C3.02727 14.3189 2.75057 14.3189 2.47388 14.0422C2.19718 13.7655 2.19718 13.4888 2.47388 13.2121L15.4785 0.20752C15.7552 -0.0691735 16.0319 -0.0691735 16.3086 0.20752Z" fill="#BCBCC3"/>
</svg>
