<svg width="16" height="16" viewBox="0 0 16 16" fill="none" xmlns="http://www.w3.org/2000/svg">
<path d="M14.4498 5.2752C14.0972 4.44162 13.5925 3.69304 12.9498 3.05025C12.307 2.40747 11.5584 1.90277 10.7248 1.5502C9.86161 1.18512 8.94486 1 8 1C7.05513 1 6.13838 1.18512 5.2752 1.5502C4.44162 1.90277 3.69304 2.40747 3.05025 3.05025C2.40745 3.69303 1.90277 4.4416 1.5502 5.2752C1.1851 6.13838 1 7.05513 1 8C1 8.94487 1.18512 9.86162 1.5502 10.7248C1.90277 11.5584 2.40747 12.307 3.05025 12.9498C3.69303 13.5925 4.4416 14.0972 5.2752 14.4498C6.13836 14.8149 7.05513 15 8 15C8.94486 15 9.86161 14.8149 10.7248 14.4498C11.5584 14.0972 12.307 13.5925 12.9498 12.9498C13.5925 12.307 14.0972 11.5584 14.4498 10.7248C14.8149 9.86162 15 8.94487 15 8C15 7.05513 14.8149 6.13838 14.4498 5.2752ZM14.482 7.75727H12.3919C12.349 6.61409 12.0557 5.4922 11.5339 4.48202C11.9839 4.25041 12.4103 3.97834 12.8092 3.66128C13.7979 4.7535 14.4207 6.17562 14.482 7.75727ZM8.25839 1.75252C9.33893 2.36876 10.199 3.22901 10.8204 4.24271C10.0132 4.58546 9.15101 4.78146 8.25839 4.81511V1.75252ZM7.75727 4.81652C6.83333 4.78622 5.93398 4.58048 5.0986 4.21698C5.74086 3.17915 6.62975 2.30377 7.75727 1.68885V4.81652ZM5.26961 4.84425C6.0644 5.14121 6.89597 5.30414 7.75727 5.32971V7.75727H4.00873C4.05236 6.66107 4.34182 5.60909 4.83179 4.67339C4.97454 4.73679 5.12272 4.78938 5.26961 4.84425ZM7.75727 8.25839V10.6102C6.89597 10.6358 6.05721 10.8 5.25932 11.0995C5.09549 11.1609 4.93374 11.2277 4.77436 11.2999C4.30846 10.3713 4.03798 9.33893 4.0061 8.25839H7.75727ZM7.75727 11.1234V14.3868C6.59843 13.7508 5.67821 12.8365 5.03277 11.7518C5.88638 11.3702 6.80201 11.1544 7.75727 11.1234ZM8.25839 11.1247C9.16667 11.1593 10.0604 11.3651 10.8861 11.7253C10.2612 12.7859 9.37025 13.6851 8.25839 14.3231V11.1247ZM10.7246 11.1044C9.9343 10.8062 9.10403 10.6407 8.25839 10.6113V8.25839H11.8812C11.8497 9.33893 11.5879 10.3508 11.1304 11.2724C10.9968 11.2131 10.8619 11.1562 10.7246 11.1044ZM8.25839 7.75727V5.32857C9.10403 5.2993 9.92711 5.13512 10.7144 4.83932C10.8357 4.79372 10.955 4.75172 11.0735 4.70031C11.5549 5.62915 11.8354 6.66107 11.8786 7.75727H8.25839ZM12.4484 3.28263C12.0844 3.56708 11.6941 3.81602 11.2827 4.02605C11.2644 3.99564 11.2459 3.96537 11.2272 3.93522C10.644 2.99914 9.86884 2.19739 8.95299 1.58288C10.2952 1.78134 11.5048 2.3924 12.4484 3.28263ZM6.89948 1.60645C5.99869 2.21792 5.23587 3.01119 4.66012 3.93522C4.6475 3.95549 4.63522 3.97594 4.62279 3.99631C4.24005 3.79661 3.87595 3.56305 3.53485 3.29843C4.44624 2.43245 5.60829 1.828 6.89948 1.60645ZM3.17537 3.67497C3.55044 3.9709 3.94947 4.23383 4.36944 4.45463C3.8376 5.47294 3.53881 6.59843 3.49541 7.75727H1.51797C1.57901 6.19128 2.19567 4.76501 3.17537 3.67497ZM1.51797 8.25839H3.49305C3.52493 9.40157 3.80589 10.5131 4.31481 11.5255C3.90306 11.7462 3.51184 12.0048 3.14389 12.2982C2.18244 11.2128 1.57837 9.80873 1.51797 8.25839ZM3.50035 12.6684C3.833 12.4071 4.18793 12.1754 4.56107 11.9761C4.59634 12.0362 4.63242 12.0958 4.6693 12.1549C5.21193 13.0215 5.91968 13.773 6.75226 14.3665C5.50373 14.1223 4.38228 13.5188 3.50035 12.6684ZM9.09566 14.3944C9.94519 13.7966 10.6668 13.0352 11.218 12.1549C11.2612 12.0858 11.3033 12.016 11.3443 11.9456C11.7462 12.1557 12.1274 12.4031 12.483 12.6845C11.5678 13.5607 10.3973 14.1721 9.09566 14.3944ZM12.8407 12.315C12.4507 12.0017 12.0312 11.7269 11.5882 11.4944C12.0872 10.4905 12.3627 9.40157 12.3943 8.25839H14.482C14.4213 9.82439 13.8111 11.2273 12.8407 12.315Z" fill="currentColor" stroke="currentColor" stroke-width="0.4"/>
</svg>
