<svg width="17" height="16" viewBox="0 0 17 16" fill="none" xmlns="http://www.w3.org/2000/svg">
<path d="M16.4089 5.97141L15.3003 5.81917C15.0542 5.78492 14.8546 5.62126 14.7577 5.39861C14.5387 4.89052 14.2597 4.41477 13.9263 3.98089C13.7771 3.78678 13.7325 3.53368 13.8255 3.30913L14.2461 2.29103C14.3759 1.97894 14.25 1.61928 13.9515 1.45181L11.5542 0.0911776C11.2558 -0.0781884 10.8779 -0.00587476 10.6666 0.260544L9.9806 1.1226C9.82749 1.3167 9.57943 1.40614 9.33137 1.3757C9.06006 1.34144 8.78292 1.32241 8.50192 1.32241C8.22091 1.32241 7.94378 1.34144 7.67246 1.3757C7.4244 1.40614 7.17634 1.3167 7.02324 1.1226L6.33719 0.260544C6.12595 -0.00587476 5.74805 -0.0781884 5.4496 0.0911776L3.05232 1.44991C2.75387 1.61928 2.62984 1.97704 2.75774 2.28913L3.17829 3.30723C3.27131 3.53368 3.22674 3.78488 3.07751 3.97898C2.74418 4.41287 2.46317 4.88861 2.24612 5.39671C2.14922 5.62126 1.94961 5.78492 1.70348 5.81727L0.59496 5.96951C0.253875 6.01709 0 6.30253 0 6.64127V9.36064C0 9.69747 0.253875 9.98291 0.593022 10.0305L1.70155 10.1827C1.94767 10.217 2.14728 10.3806 2.24418 10.6033C2.46317 11.1114 2.74224 11.5871 3.07557 12.021C3.2248 12.2151 3.26937 12.4682 3.17635 12.6928L2.75581 13.7109C2.62596 14.023 2.75193 14.3826 3.05038 14.5501L5.44766 15.9088C5.74611 16.0782 6.12402 16.0059 6.33526 15.7395L7.0213 14.8774C7.1744 14.6833 7.42246 14.5939 7.67052 14.6243C7.94184 14.6586 8.21897 14.6776 8.49998 14.6776C8.78099 14.6776 9.05812 14.6586 9.32943 14.6243C9.5775 14.5939 9.82556 14.6833 9.97866 14.8774L10.6647 15.7395C10.8759 16.0059 11.2538 16.0782 11.5523 15.9088L13.9496 14.5501C14.248 14.3807 14.3721 14.023 14.2442 13.7109L13.8236 12.6928C13.7306 12.4682 13.7752 12.2151 13.9244 12.021C14.2577 11.5871 14.5387 11.1114 14.7558 10.6033C14.8527 10.3787 15.0523 10.2151 15.2984 10.1827L16.4069 10.0305C16.748 9.98291 17 9.69747 17 9.36064V6.64127C17.0038 6.30253 16.75 6.01709 16.4089 5.97141ZM8.50192 10.6433C7.01549 10.6433 5.81006 9.45959 5.81006 8C5.81006 6.54041 7.01549 5.35675 8.50192 5.35675C9.98835 5.35675 11.1938 6.54041 11.1938 8C11.1938 9.45959 9.98835 10.6433 8.50192 10.6433Z" fill="#A4A4A4"/>
</svg>
