<svg width="16" height="16" viewBox="0 0 16 16" fill="none" xmlns="http://www.w3.org/2000/svg">
<path d="M8.07529 12.6228C8.15604 12.6228 8.23826 12.618 8.32095 12.6085C9.11406 12.5163 9.78754 11.9795 10.0361 11.2396C10.0549 11.1842 10.0278 11.125 9.97313 11.1006C9.91897 11.0763 9.8535 11.0973 9.82298 11.147C9.82003 11.1518 9.50494 11.6447 8.27813 11.8051C8.0945 11.829 7.91579 11.8414 7.74644 11.8414C6.88687 11.841 6.50386 11.5272 6.50041 11.5243C6.4571 11.487 6.39111 11.4861 6.34682 11.5224C6.30203 11.5587 6.29168 11.6217 6.3222 11.67C6.69636 12.2574 7.36785 12.6228 8.07529 12.6228ZM14.6717 5.25993C14.6609 5.25993 14.651 5.26184 14.6407 5.26184C13.9219 2.24812 11.1753 0 7.88232 0C4.49871 0 1.68912 2.37231 1.06633 5.51068C0.460806 5.61623 0 6.13157 0 6.75487V9.24944C0 9.94866 0.57896 10.5156 1.29378 10.5156C1.69699 10.5156 2.05293 10.3312 2.28973 10.048C2.86176 11.5133 4.02651 12.6948 5.5004 13.3181C5.50394 13.3107 5.53185 13.2582 5.56538 13.2163C5.58864 13.1873 5.61458 13.1635 5.63691 13.1635C5.66005 13.1635 5.68123 13.1716 5.69943 13.184C5.35826 12.938 4.12603 11.6738 3.8592 9.90949C3.74203 9.13289 4.34263 8.37064 5.04221 8.24454C6.16516 8.04203 7.2822 7.81135 8.40515 7.61267C9.119 7.48657 9.60688 7.10735 9.90522 6.47596C9.97512 6.32837 10.0761 6.02987 10.1223 5.59954C10.1346 5.53555 10.1888 5.48634 10.2582 5.48634C10.3045 5.48634 10.3439 5.50927 10.37 5.54222L10.401 5.5236C10.8436 6.14592 11.7214 7.52383 11.8474 8.97672C11.9921 10.6379 11.9114 11.7755 10.5984 12.9395C10.5969 12.9409 10.595 12.9428 10.593 12.9443C10.5748 12.9634 10.564 12.9882 10.564 13.0154C10.564 13.0512 10.5837 13.0818 10.6122 13.1004C10.623 13.1047 10.6339 13.1104 10.6447 13.1148C10.6536 13.1167 10.6619 13.1195 10.6708 13.1195C10.6797 13.1195 10.6875 13.1167 10.6954 13.1148C10.7141 13.1052 10.7318 13.0942 10.7501 13.0847C12.0778 12.3764 13.0964 11.1933 13.567 9.77051C13.7575 10.0447 14.0559 10.2419 14.4025 10.3107C13.8467 12.7589 11.5919 14.2911 8.79854 14.5237C8.63115 14.1216 8.21909 13.8359 7.73516 13.8359C7.10304 13.8359 6.59054 14.3207 6.59054 14.9182C6.59054 15.5157 7.10303 16 7.73516 16C8.24469 16 8.67153 15.6829 8.81971 15.2473C12.0532 14.9927 14.6452 13.1315 15.1862 10.2395C15.6643 10.0461 16 9.59188 16 9.06173V6.53755C16 5.83212 15.4052 5.25993 14.6717 5.25993ZM13.4789 5.98495C12.6355 3.77266 10.4502 2.19224 7.87937 2.19224C5.31937 2.19224 3.14191 3.75928 2.29071 5.95724C2.24838 5.90709 2.19865 5.86412 2.14991 5.82065C2.63187 3.1422 5.01218 1.10567 7.88232 1.10567C10.7387 1.10567 13.1116 3.12214 13.6093 5.78196C13.5601 5.84597 13.5148 5.91284 13.4789 5.98495ZM5.50054 13.3182C5.50048 13.3182 5.50044 13.3182 5.50038 13.3181C5.49985 13.3193 5.49984 13.3194 5.50054 13.3182Z" fill="#282D37"/>
</svg>
