<svg width="15" height="17" viewBox="0 0 15 17" fill="none" xmlns="http://www.w3.org/2000/svg">
<path d="M7.87218 9.84203V16.0711H0C4.67369e-09 14.3662 0.663828 12.7311 1.84545 11.5255C3.02707 10.3199 4.62969 9.64258 6.30075 9.64258C6.83056 9.64366 7.35826 9.71064 7.87218 9.84203ZM11.0226 12.0514V9.64258H12.6015V12.0514H15V13.6624H12.6015V16.0711H11.0226V13.6624H8.66165V12.0514H11.0226Z" fill="#282D37"/>
<path d="M5.12318 7.85199C5.82901 8.32239 6.65854 8.57277 7.50676 8.57142C8.64104 8.56962 9.72835 8.11823 10.5304 7.31617C11.3325 6.51411 11.7839 5.4268 11.7857 4.29252C11.787 3.44431 11.5366 2.61477 11.0662 1.90895C10.5958 1.20312 9.92655 0.652756 9.14316 0.327536C8.35978 0.00231663 7.4975 -0.0831289 6.66552 0.082019C5.83354 0.247167 5.06927 0.65548 4.46949 1.25526C3.86971 1.85504 3.4614 2.6193 3.29625 3.45128C3.1311 4.28326 3.21655 5.14554 3.54177 5.92893C3.86699 6.71232 4.41736 7.38159 5.12318 7.85199Z" fill="#282D37"/>
</svg>
