<svg width="15" height="16" viewBox="0 0 15 16" fill="none" xmlns="http://www.w3.org/2000/svg">
<path d="M4.28571 5C4.28571 3.343 5.72464 2 7.5 2C9.27536 2 10.7143 3.343 10.7143 5C10.7143 5.353 10.6371 5.686 10.5171 6H12.8571V5C12.8571 2.239 10.4582 0 7.5 0C4.54071 0 2.14286 2.238 2.14286 5V6C2.14286 6 3.11679 6 4.48286 6C4.36286 5.685 4.28571 5.352 4.28571 5ZM12.8571 6H2.14286C0.958929 6 0 6.896 0 8V14C0 15.105 0.958929 16 2.14286 16H12.8571C14.0411 16 15 15.104 15 14V8C15 6.896 14.0411 6 12.8571 6ZM8.57143 11.722V13C8.57143 13.552 8.09143 14 7.5 14C6.90857 14 6.42857 13.552 6.42857 13V11.723C5.79107 11.376 5.35714 10.738 5.35714 10C5.35714 8.895 6.31607 8 7.5 8C8.68393 8 9.64286 8.895 9.64286 10C9.64286 10.738 9.20893 11.376 8.57143 11.722Z" fill="#282D37"/>
</svg>
