<svg width="16" height="16" viewBox="0 0 16 16" fill="none" xmlns="http://www.w3.org/2000/svg">
<path d="M10.8571 4.90286C10.3909 2.02286 9.28686 0 8.00343 0C6.72 0 5.61486 2.02286 5.14743 4.90286H10.8571ZM5.71886 0.334857C4.58473 0.672525 3.53952 1.25731 2.65838 2.04715C1.77725 2.83699 1.08207 3.81227 0.622857 4.90286H4.10857C4.38857 3.06743 4.93029 1.42514 5.71771 0.334857H5.71886ZM15.3829 4.90286C14.9228 3.81221 14.2269 2.83696 13.3453 2.04716C12.4636 1.25736 11.4179 0.672591 10.2834 0.334857C11.0697 1.42514 11.6126 3.06629 11.896 4.90286H15.3817H15.3829ZM3.87314 8C3.87314 7.30743 3.912 6.61143 3.97943 5.936H0.277714C0.0961275 6.60907 0.00277442 7.30288 0 8C0 8.71543 0.102857 9.40343 0.277714 10.064H3.97486C3.90847 9.37798 3.87414 8.68923 3.872 8H3.87314ZM4.904 8C4.904 8.71657 4.944 9.40343 5.01143 10.064H10.9886C11.0571 9.40114 11.096 8.71543 11.096 8C11.096 7.28571 11.0571 6.59657 10.9886 5.936H5.01143C4.94286 6.59657 4.904 7.28457 4.904 8ZM15.7246 5.936H12.0251C12.0937 6.61371 12.1326 7.30743 12.1326 8C12.1326 8.69257 12.0926 9.38857 12.0251 10.064H15.7223C15.8994 9.40114 16 8.71543 16 8C16 7.28571 15.8994 6.59657 15.7246 5.936ZM10.2857 15.6629C11.4197 15.3243 12.4648 14.7393 13.3462 13.9495C14.2276 13.1598 14.9235 12.185 15.384 11.0949H11.8971C11.6126 12.9326 11.0731 14.5749 10.2857 15.6629ZM0.622857 11.0971C1.08291 12.1878 1.77877 13.163 2.66045 13.9528C3.54214 14.7426 4.58778 15.3274 5.72229 15.6651C4.93371 14.5749 4.392 12.9337 4.10857 11.0971H0.622857ZM5.14629 11.0971C5.61486 13.9771 6.72 16 8.00229 16C9.28571 16 10.3886 13.9771 10.8571 11.0971H5.14629Z" fill="#282D37"/>
</svg>
