<svg width="16" height="15" viewBox="0 0 16 15" fill="none" xmlns="http://www.w3.org/2000/svg">
<path d="M16 4.52758C16 4.16381 15.7015 3.86894 15.3333 3.86894H0.666664C0.298464 3.86894 0 4.16381 0 4.52758V14.3414C0 14.7051 0.298464 15 0.666664 15H15.3333C15.7015 15 16 14.7051 16 14.3414V11.8385H11.8V11.8381C11.7889 11.8383 11.7778 11.8385 11.7667 11.8385C10.4228 11.8385 9.33334 10.7622 9.33334 9.43448C9.33334 8.10676 10.4228 7.03043 11.7667 7.03043C11.7778 7.03043 11.7889 7.0307 11.8 7.03085V7.03043H16V4.52758ZM10.3333 9.43448C10.3333 10.2166 10.9751 10.8506 11.7667 10.8506C12.5583 10.8506 13.2 10.2166 13.2 9.43448C13.2 8.6524 12.5583 8.01839 11.7667 8.01839C10.9751 8.01839 10.3333 8.6524 10.3333 9.43448ZM14.3999 3.25609L13.5723 0.393969C13.489 0.105971 13.1843 -0.0610902 12.8916 0.0208208L1.33483 3.25609H14.3999Z" fill="#282D37"/>
</svg>
