<svg width="17" height="15" viewBox="0 0 17 15" fill="none" xmlns="http://www.w3.org/2000/svg">
<path d="M14.3713 8.82793L14.394 8.85365L16.8605 11.4454C17.0372 11.6543 17.046 11.9885 16.887 12.2101L16.8605 12.2439L14.394 14.8356C14.104 15.1785 13.6014 14.9504 13.5766 14.4702L13.5757 14.4328V12.8624H9.8632C9.46825 12.8624 9.14244 12.5552 9.12037 12.1713L9.11924 12.1298V11.5449C9.11924 11.156 9.43133 10.8352 9.82109 10.8136L9.8632 10.8125H13.5757V9.24929C13.5757 8.75643 14.0707 8.50718 14.3713 8.82793ZM15.7617 5.13972V8.66147L15.1125 7.97913C14.0839 6.80574 12.3373 7.66334 12.3373 9.13628V9.57185H9.75039C8.72363 9.57185 7.8806 10.4019 7.8806 11.4321V12.017L7.88151 12.074C7.89226 12.4362 8.00952 12.7871 8.21858 13.0828H1.351C0.992692 13.0828 0.64906 12.9402 0.395699 12.6864C0.142337 12.4326 3.90732e-09 12.0883 0 11.7294L0 5.13972H15.7617ZM5.62916 9.81207H2.47683C2.30453 9.81206 2.13874 9.87801 2.01338 9.99642C1.88802 10.1148 1.81257 10.2768 1.80246 10.4491L1.80133 10.4888V10.537C1.80132 10.7096 1.86715 10.8757 1.98536 11.0013C2.10356 11.1269 2.2652 11.2025 2.4372 11.2126L2.47683 11.2137H5.62916C5.80143 11.2137 5.96719 11.1478 6.09254 11.0295C6.2179 10.9111 6.29337 10.7492 6.30354 10.577L6.30466 10.537V10.4888C6.30466 10.3999 6.28719 10.3119 6.25324 10.2298C6.2193 10.1477 6.16954 10.0731 6.10681 10.0103C6.04409 9.94744 5.96962 9.89759 5.88767 9.86358C5.80571 9.82958 5.71787 9.81207 5.62916 9.81207ZM14.4107 0C14.769 3.91424e-09 15.1126 0.142589 15.366 0.396399C15.6193 0.650208 15.7617 0.994448 15.7617 1.35339V2.80355H0V1.35339C0 0.994448 0.142337 0.650208 0.395699 0.396399C0.64906 0.142589 0.992692 0 1.351 0H14.4107Z" fill="#282D37"/>
</svg>
