<svg width="16" height="16" viewBox="0 0 16 16" fill="none" xmlns="http://www.w3.org/2000/svg">
<path d="M7.9953 0C3.57437 0 0 3.21548 0 7.17448C0 7.37726 0.00940624 7.58004 0.0282187 7.78281C0.216343 9.80094 1.33568 11.5777 3.00059 12.775V15.4691C3.00059 15.8843 3.44268 16.1353 3.78131 15.9229L6.49971 14.2331C6.98883 14.3103 7.48736 14.3586 7.9953 14.3586C12.1811 14.3586 15.6143 11.4714 15.9624 7.79247C15.9812 7.58969 16 7.38691 16 7.18414C15.9906 3.21548 12.4068 0 7.9953 0ZM3.98824 6.86548C3.98824 6.58546 4.21399 6.35371 4.48677 6.35371H5.22046C5.49324 6.35371 5.71899 6.58546 5.71899 6.86548C5.71899 7.14551 5.49324 7.37726 5.22046 7.37726H4.48677C4.21399 7.38691 3.98824 7.15517 3.98824 6.86548ZM10.4879 9.743H5.49324C5.22046 9.743 4.99471 9.51125 4.99471 9.23123C4.99471 8.9512 5.22046 8.71945 5.49324 8.71945H10.4974C10.7701 8.71945 10.9959 8.9512 10.9959 9.23123C10.9865 9.51125 10.7701 9.743 10.4879 9.743ZM11.4944 7.38691H7.11111C6.83833 7.38691 6.61258 7.15517 6.61258 6.87514C6.61258 6.59511 6.83833 6.36337 7.11111 6.36337H11.485C11.7578 6.36337 11.9835 6.59511 11.9835 6.87514C11.9929 7.15517 11.7672 7.38691 11.4944 7.38691Z" fill="#282D37"/>
</svg>
