<svg width="120" height="79" viewBox="0 0 120 79" fill="none" xmlns="http://www.w3.org/2000/svg">
<path d="M13.6164 53.9847C14.0517 53.9939 14.4008 54.3533 14.4008 54.7905C14.4023 54.8954 14.3832 54.9996 14.3446 55.097C14.3059 55.1945 14.2484 55.2832 14.1755 55.3581C14.1025 55.4331 14.0156 55.4927 13.9196 55.5336C13.8237 55.5744 13.7206 55.5957 13.6164 55.5963H11.9993V57.225C11.9952 57.4359 11.9091 57.6369 11.7595 57.7846C11.6099 57.9323 11.4088 58.015 11.1993 58.015C11.0952 58.0165 10.9918 57.9973 10.8951 57.9583C10.7985 57.9194 10.7104 57.8615 10.6361 57.788C10.5618 57.7145 10.5028 57.6269 10.4623 57.5303C10.4219 57.4336 10.4009 57.3298 10.4006 57.225V55.5963H8.78349C8.57403 55.5921 8.37454 55.5054 8.22788 55.3547C8.08122 55.2041 7.99909 55.0015 7.99913 54.7905C7.99913 54.3467 8.34425 53.9847 8.78349 53.9847H10.4006V52.3573C10.4047 52.1465 10.4906 51.9458 10.6399 51.7981C10.7892 51.6504 10.99 51.5676 11.1993 51.5673C11.6412 51.5673 11.9993 51.9149 11.9993 52.3573V53.9847H13.6164ZM117.599 47.5396V45.9122C117.598 45.8072 117.577 45.7033 117.537 45.6066C117.496 45.5099 117.437 45.4222 117.363 45.3487C117.288 45.2752 117.2 45.2173 117.103 45.1784C117.006 45.1396 116.903 45.1204 116.799 45.1222C116.589 45.1221 116.388 45.2049 116.238 45.3526C116.089 45.5003 116.003 45.7012 115.998 45.9122V47.5396H114.383C114.278 47.5399 114.175 47.5611 114.079 47.6019C113.983 47.6427 113.896 47.7023 113.823 47.7773C113.75 47.8523 113.693 47.9411 113.654 48.0386C113.616 48.1361 113.597 48.2404 113.598 48.3454C113.598 48.7772 113.951 49.1512 114.383 49.1512H115.998V50.7786C115.998 51.221 116.358 51.5686 116.799 51.5686C117.008 51.5686 117.209 51.4859 117.359 51.3382C117.508 51.1905 117.594 50.9895 117.599 50.7786V49.1512H119.216C119.655 49.1512 120 48.7904 120 48.3454C120 48.1344 119.918 47.9318 119.771 47.7811C119.625 47.6304 119.425 47.5437 119.216 47.5396H117.599ZM59.4751 74.1283H19.1945C18.9846 74.1285 18.7767 74.0869 18.5828 74.0059C18.3889 73.9249 18.2127 73.8061 18.0645 73.6564C17.9163 73.5066 17.799 73.3289 17.7192 73.1333C17.6394 72.9377 17.5988 72.7282 17.5997 72.5167C17.5997 71.6267 18.3252 70.9051 19.1945 70.9051H26.4498C25.8903 69.9275 25.5971 68.8183 25.6001 67.6898V20.9416C25.6004 20.0951 25.7664 19.2569 26.0886 18.475C26.4108 17.6932 26.8829 16.983 27.4778 16.385C28.0727 15.787 28.7788 15.313 29.5558 14.9901C30.3327 14.6672 31.1652 14.5017 32.0057 14.5031H36.7994V12.8836C36.7997 12.0371 36.9657 11.1989 37.2879 10.417C37.6101 9.63519 38.0822 8.92496 38.6771 8.32699C39.272 7.72902 39.9781 7.25502 40.7551 6.93211C41.532 6.6092 42.3645 6.4437 43.205 6.44508H81.5927C82.4333 6.44335 83.2659 6.60861 84.043 6.9314C84.8201 7.25419 85.5263 7.72817 86.1213 8.32622C86.7163 8.92426 87.1883 9.63462 87.5104 10.4166C87.8325 11.1986 87.9983 12.037 87.9983 12.8836V59.6332C87.9983 60.805 87.6884 61.9031 87.1459 62.8485H95.9974C96.8824 62.8485 97.5988 63.5634 97.5988 64.4601C97.5988 65.3501 96.8876 66.0717 95.9987 66.0717H76.799V67.6912C76.799 68.863 76.4891 69.9598 75.9466 70.9065H76.8042C77.684 70.9065 78.399 71.6214 78.399 72.5181C78.399 73.4068 77.6748 74.1297 76.8042 74.1297H68.3867C68.751 74.7452 68.9005 75.4657 68.8114 76.1767C68.7224 76.8876 68.3999 77.5482 67.8952 78.0533C67.5986 78.3534 67.2461 78.5915 66.8578 78.7539C66.4696 78.9164 66.0534 79 65.633 79C65.2126 79 64.7963 78.9164 64.4081 78.7539C64.0199 78.5915 63.6674 78.3534 63.3708 78.0533L59.4751 74.1297V74.1283ZM65.3238 70.9051H70.4117C70.832 70.905 71.2481 70.8211 71.6362 70.6585C72.0242 70.4958 72.3765 70.2575 72.6728 69.9572C72.9691 69.6569 73.2035 69.3007 73.3627 68.9088C73.5218 68.517 73.6025 68.0974 73.6001 67.674V20.8652C73.6025 20.4547 73.5244 20.0476 73.3704 19.6675C73.2163 19.2874 72.9893 18.9416 72.7024 18.65C72.4154 18.3584 72.0741 18.1267 71.6981 17.9682C71.3221 17.8097 70.9187 17.7275 70.511 17.7263H31.888C31.4806 17.7282 31.0776 17.8109 30.702 17.9697C30.3263 18.1284 29.9854 18.3602 29.6987 18.6516C29.412 18.9431 29.185 19.2886 29.0309 19.6684C28.8767 20.0482 28.7984 20.4549 28.8003 20.8652V67.6767C28.7996 68.5297 29.1341 69.3484 29.7308 69.9538C30.3275 70.5593 31.1378 70.9022 31.9848 70.9078H56.2737L55.4501 70.0783C55.0512 69.6786 54.7643 69.1799 54.6183 68.6326C54.4723 68.0853 54.4724 67.5089 54.6187 66.9617L53.1088 65.4383C50.8401 67.1383 48.017 67.9112 45.2061 67.6021C42.3951 67.2931 39.8042 65.9249 37.953 63.772C36.1019 61.6191 35.1275 58.8408 35.2253 55.9945C35.3232 53.1482 36.486 50.4445 38.4805 48.4257C40.4816 46.4032 43.1697 45.2203 46.0026 45.1155C48.8356 45.0108 51.6026 45.992 53.7455 47.8613C55.8884 49.7306 57.2477 52.3489 57.5492 55.188C57.8508 58.027 57.0721 60.8756 55.3703 63.1592L56.8828 64.6826C57.4258 64.5349 57.9979 64.5345 58.5411 64.6813C59.0842 64.8282 59.5792 65.117 59.9758 65.5187L65.3238 70.9065V70.9051ZM76.799 62.8471H81.6136C82.4596 62.8426 83.2695 62.5011 83.8664 61.8972C84.4633 61.2933 84.7987 60.4761 84.7994 59.6239V12.8915C84.8006 12.4691 84.7191 12.0507 84.5596 11.6601C84.4001 11.2695 84.1657 10.9145 83.8698 10.6152C83.5739 10.316 83.2223 10.0784 82.8352 9.91616C82.448 9.7539 82.0329 9.67012 81.6136 9.6696H43.1841C42.3385 9.67447 41.5291 10.0159 40.9325 10.6195C40.336 11.2231 40.0006 12.0398 39.9996 12.8915V14.5031H70.3934C71.234 14.5014 72.0666 14.6666 72.8437 14.9894C73.6208 15.3122 74.327 15.7862 74.922 16.3842C75.517 16.9823 75.989 17.6926 76.3111 18.4746C76.6332 19.2566 76.799 20.095 76.799 20.9416V62.8485V62.8471ZM20.3998 3.62478H22.7842C23.4562 3.62478 24 4.16198 24 4.8348C23.999 4.99457 23.9667 5.15257 23.9051 5.29978C23.8434 5.44699 23.7536 5.58052 23.6407 5.69276C23.5278 5.805 23.394 5.89374 23.2471 5.95392C23.1001 6.0141 22.9429 6.04454 22.7842 6.0435H20.3998V8.44378C20.3998 9.12055 19.8664 9.66828 19.1997 9.66828C19.0411 9.66725 18.8842 9.63476 18.7381 9.57266C18.5919 9.51056 18.4593 9.42008 18.3479 9.30637C18.2365 9.19267 18.1484 9.05797 18.0886 8.90996C18.0289 8.76196 17.9986 8.60355 17.9997 8.44378V6.0435H15.6152C15.4565 6.04489 15.2991 6.01469 15.152 5.95463C15.0049 5.89458 14.871 5.80585 14.758 5.69354C14.6451 5.58123 14.5553 5.44756 14.4937 5.30019C14.4322 5.15282 14.4002 4.99467 14.3995 4.8348C14.3995 4.16725 14.9433 3.6261 15.6152 3.6261H17.9997V1.2245C17.9997 0.547733 18.533 0 19.1997 0C19.8625 0 20.3998 0.547734 20.3998 1.2245V3.6261V3.62478ZM1.60009 72.5194C1.60009 71.6293 2.32431 70.9078 3.19495 70.9078H12.8046C13.6844 70.9078 14.3995 71.6227 14.3995 72.5194C14.3995 73.4081 13.6753 74.131 12.8046 74.131H3.19625C2.98621 74.1313 2.77818 74.0899 2.58411 74.0089C2.39004 73.928 2.21377 73.8093 2.06543 73.6595C1.91709 73.5097 1.79962 73.3319 1.71976 73.1362C1.63989 72.9406 1.59923 72.7309 1.60009 72.5194ZM52.0577 62.1019C53.5581 60.5906 54.4009 58.5408 54.4008 56.4036C54.4007 54.2663 53.5576 52.2167 52.0571 50.7055C50.5565 49.1943 48.5214 48.3454 46.3995 48.3456C44.2775 48.3457 42.2425 49.1948 40.7421 50.7062C39.2417 52.2175 38.3989 54.2673 38.399 56.4045C38.3991 57.4628 38.6061 58.5106 39.0082 59.4883C39.4104 60.466 39.9997 61.3543 40.7427 62.1026C41.4857 62.8508 42.3678 63.4444 43.3385 63.8493C44.3093 64.2542 45.3497 64.4626 46.4004 64.4625C48.5224 64.4624 50.5574 63.6133 52.0577 62.1019ZM35.1993 24.174C35.1993 23.2839 35.9157 22.5637 36.7981 22.5624H54.399C54.8234 22.5624 55.2304 22.7322 55.5305 23.0344C55.8305 23.3367 55.9991 23.7466 55.9991 24.174C55.9991 24.6014 55.8305 25.0113 55.5305 25.3136C55.2304 25.6158 54.8234 25.7856 54.399 25.7856H36.7994C36.5891 25.7863 36.3807 25.7451 36.1862 25.6643C35.9918 25.5836 35.8151 25.4649 35.6664 25.3151C35.5177 25.1653 35.3999 24.9874 35.3197 24.7916C35.2395 24.5957 35.1986 24.3858 35.1993 24.174ZM35.1993 32.232C35.1986 32.0211 35.2392 31.812 35.3187 31.6169C35.3982 31.4217 35.5151 31.2443 35.6627 31.0946C35.8103 30.945 35.9858 30.8261 36.179 30.7447C36.3722 30.6633 36.5795 30.6211 36.7889 30.6204H62.4112C63.2871 30.6204 63.9996 31.3354 63.9996 32.2307C64.001 32.6565 63.8344 33.0654 63.5366 33.3676C63.2388 33.6698 62.834 33.8405 62.4112 33.8423H36.7889C36.5793 33.8421 36.3719 33.8002 36.1784 33.7191C35.9849 33.6379 35.8093 33.519 35.6616 33.3692C35.5139 33.2195 35.397 33.0418 35.3176 32.8464C35.2383 32.651 35.1981 32.4418 35.1993 32.2307V32.232ZM35.1993 40.29C35.1993 39.3986 35.9131 38.6771 36.7968 38.6771H48.0026C48.2127 38.6767 48.4208 38.7182 48.615 38.7991C48.8091 38.88 48.9855 38.9987 49.1339 39.1485C49.2823 39.2983 49.3999 39.4761 49.4799 39.6717C49.5599 39.8674 49.6008 40.0771 49.6001 40.2887C49.6001 41.1788 48.8863 41.9003 48.0026 41.9003H36.7968C36.5866 41.9008 36.3785 41.8595 36.1842 41.7786C35.99 41.6978 35.8136 41.5791 35.6651 41.4293C35.5166 41.2795 35.399 41.1016 35.3191 40.9058C35.2392 40.7101 35.1984 40.5003 35.1993 40.2887V40.29ZM4.80026 30.6178C3.52715 30.6178 2.30619 30.1084 1.40596 29.2017C0.50574 28.295 0 27.0652 0 25.783C0 24.5007 0.50574 23.271 1.40596 22.3643C2.30619 21.4576 3.52715 20.9482 4.80026 20.9482C6.07337 20.9482 7.29434 21.4576 8.19456 22.3643C9.09478 23.271 9.60052 24.5007 9.60052 25.783C9.60052 27.0652 9.09478 28.295 8.19456 29.2017C7.29434 30.1084 6.07337 30.6178 4.80026 30.6178ZM4.80026 28.2004C5.43682 28.2004 6.0473 27.9457 6.49741 27.4923C6.94752 27.039 7.20039 26.4241 7.20039 25.783C7.20039 25.1418 6.94752 24.527 6.49741 24.0736C6.0473 23.6203 5.43682 23.3656 4.80026 23.3656C4.16371 23.3656 3.55322 23.6203 3.10311 24.0736C2.653 24.527 2.40013 25.1418 2.40013 25.783C2.40013 26.4241 2.653 27.039 3.10311 27.4923C3.55322 27.9457 4.16371 28.2004 4.80026 28.2004ZM103.999 20.9482C102.726 20.9482 101.505 20.4388 100.605 19.5321C99.7046 18.6254 99.1989 17.3956 99.1989 16.1134C99.1989 14.8311 99.7046 13.6013 100.605 12.6946C101.505 11.7879 102.726 11.2786 103.999 11.2786C105.272 11.2786 106.493 11.7879 107.393 12.6946C108.294 13.6013 108.799 14.8311 108.799 16.1134C108.799 17.3956 108.294 18.6254 107.393 19.5321C106.493 20.4388 105.272 20.9482 103.999 20.9482ZM103.999 18.5308C104.636 18.5308 105.246 18.2761 105.696 17.8227C106.146 17.3694 106.399 16.7545 106.399 16.1134C106.399 15.4722 106.146 14.8574 105.696 14.404C105.246 13.9507 104.636 13.696 103.999 13.696C103.363 13.696 102.752 13.9507 102.302 14.404C101.852 14.8574 101.599 15.4722 101.599 16.1134C101.599 16.7545 101.852 17.3694 102.302 17.8227C102.752 18.2761 103.363 18.5308 103.999 18.5308Z" fill="#A4A4A4"/>
</svg>
