<svg width="13" height="16" viewBox="0 0 13 16" fill="none" xmlns="http://www.w3.org/2000/svg">
<path d="M11.2895 1.04348H9.92108V0H3.07894V1.04348H1.71052C0.6244 1.04348 0 1.93444 0 2.78259V14.2609C0 15.1091 0.6244 16 1.71052 16H11.2895C12.3756 16 13 15.109 13 14.2609V2.78259C13 1.93444 12.3756 1.04348 11.2895 1.04348ZM7.18425 3.82608H10.2632V4.52173H7.18423L7.18425 3.82608ZM3.76315 0.695634H9.23685V2.08694H3.76318L3.76315 0.695634ZM10.9427 13.213H2.05632V12.5217H10.9427L10.9427 13.213ZM10.948 11.1271H2.05565V10.4365H10.9481L10.948 11.1271ZM10.948 9.04247H2.05565V8.35123H10.9481L10.948 9.04247ZM10.948 6.95753H2.05565V6.26629H10.9481L10.948 6.95753Z" fill="#A4A4A4"/>
</svg>
