<svg width="16" height="19" viewBox="0 0 16 19" fill="none" xmlns="http://www.w3.org/2000/svg">
<path d="M13.8948 1.23913H12.2106V0H3.78946V1.23913H2.10526C0.768492 1.23913 0 2.29715 0 3.30432V16.9348C0 17.942 0.768492 19 2.10526 19H13.8947C15.2315 19 16 17.942 16 16.9348V3.30432C16 2.29715 15.2315 1.23913 13.8948 1.23913ZM8.84215 4.54347H12.6316V5.36956H8.84212L8.84215 4.54347ZM4.63157 0.826065H11.3684V2.47824H4.63161L4.63157 0.826065ZM13.4679 15.6904H2.53085V14.8696H13.468L13.4679 15.6904ZM13.4745 13.2134H2.53003V12.3933H13.4745L13.4745 13.2134ZM13.4745 10.7379H2.53003V9.91709H13.4745L13.4745 10.7379ZM13.4745 8.26207H2.53003V7.44123H13.4745L13.4745 8.26207Z" fill="black"/>
</svg>
