<svg width="16" height="16" viewBox="0 0 16 16" fill="none" xmlns="http://www.w3.org/2000/svg">
<path d="M6.67552 1.25163C9.45003 1.25606 11.7703 3.36115 12.0436 6.12203C12.3171 8.88292 10.4547 11.4023 7.73526 11.9507C5.0155 12.4993 2.32235 10.8988 1.50434 8.24772C0.686327 5.59661 2.00891 2.75697 4.56465 1.67744C5.23246 1.39496 5.95041 1.25013 6.67552 1.25163ZM6.67552 0C2.98886 0 0 2.98879 0 6.67536C0 10.3619 2.98886 13.3507 6.67552 13.3507C10.3622 13.3507 13.351 10.3619 13.351 6.67536C13.351 2.98879 10.3622 0 6.67552 0ZM15.3746 16C15.2923 16.0002 15.2109 15.984 15.1349 15.9525C15.059 15.921 14.99 15.8747 14.932 15.8164L11.7612 12.6456C11.5241 12.4 11.5275 12.0096 11.7687 11.7682C12.0102 11.5267 12.4006 11.5233 12.6459 11.7606L15.8168 14.9314C15.9043 15.0189 15.9638 15.1304 15.988 15.2518C16.0121 15.3732 15.9997 15.499 15.9524 15.6133C15.9052 15.7277 15.8251 15.8255 15.7222 15.8944C15.6193 15.9632 15.4983 16 15.3746 16Z" fill="#A4A4A4"/>
</svg>
