<svg width="17" height="17" viewBox="0 0 17 17" fill="none" xmlns="http://www.w3.org/2000/svg">
<path d="M8.5 0C3.76429 0 0 3.76429 0 8.5C0 13.2357 3.76429 17 8.5 17C13.2357 17 17 13.2357 17 8.5C17 3.76429 13.2357 0 8.5 0ZM9.47143 13.6C9.47143 14.2071 9.10714 14.5714 8.5 14.5714C7.89286 14.5714 7.52857 14.2071 7.52857 13.6V8.01429C7.52857 7.40714 7.89286 7.04286 8.5 7.04286C9.10714 7.04286 9.47143 7.40714 9.47143 8.01429V13.6ZM9.95714 4.37143C9.95714 5.22143 9.22857 5.82857 8.5 5.82857C7.77143 5.82857 7.04286 5.22143 7.04286 4.37143C7.04286 3.52143 7.65 2.79286 8.5 2.79286C9.35 2.79286 9.95714 3.52143 9.95714 4.37143Z" fill="#00B6E6"/>
</svg>
