<svg width="20" height="8" viewBox="0 0 20 8" fill="none" xmlns="http://www.w3.org/2000/svg">
<path d="M19.9293 4.79783C20.0707 4.92809 20 5.25373 19.7171 5.25373H0.718916C0.294638 5.25373 0 4.99322 0 4.59159V3.92944C0 3.53867 0.282852 3.2673 0.718916 3.2673H13.5769V0.260516C13.5769 5.17598e-08 13.8598 -0.0651289 14.0719 0.0651289L19.9293 4.79783ZM19.3282 8H0.683559C0.318209 8 0.0117855 7.71777 0.0117855 7.38127C0.0117855 7.04478 0.318209 6.76255 0.683559 6.76255H19.3282C19.6936 6.76255 20 7.04478 20 7.38127C20 7.71777 19.6936 8 19.3282 8Z" fill="#A4A4A4"/>
</svg>
