<svg width="14" height="11" viewBox="0 0 14 11" fill="none" xmlns="http://www.w3.org/2000/svg">
<path d="M13.7968 3.92185C13.836 3.91883 13.8736 3.90547 13.9057 3.88316C13.9378 3.86085 13.9632 3.83043 13.9792 3.79511C13.9951 3.7598 14.0011 3.72089 13.9964 3.68252C13.9918 3.64415 13.9766 3.60772 13.9526 3.5771L9.86093 0.0454133C9.71285 -0.0465179 9.51022 -0.000552272 9.51022 0.198632V2.43563H0.531861C0.461591 2.42737 0.390331 2.43463 0.323281 2.45689C0.256232 2.47915 0.195084 2.51585 0.144301 2.5643C0.0935169 2.61275 0.0543781 2.67173 0.0297402 2.73695C0.00510234 2.80216 -0.00441304 2.87196 0.0018884 2.94125V3.43155C-0.00146544 3.4968 0.00914019 3.56203 0.0330206 3.62301C0.056901 3.68399 0.0935253 3.73936 0.140529 3.78557C0.187533 3.83177 0.243871 3.86777 0.305907 3.89125C0.367943 3.91472 0.434297 3.92514 0.500686 3.92185H13.7968ZM0.2357 7.07815C0.196502 7.08117 0.15886 7.09453 0.126753 7.11684C0.0946467 7.13915 0.0692679 7.16957 0.0532995 7.20489C0.037331 7.2402 0.0313661 7.27911 0.0360353 7.31748C0.0407045 7.35585 0.0558343 7.39228 0.0798255 7.4229L4.17152 10.9546C4.3196 11.0465 4.52224 11.0006 4.52224 10.8014V8.56437H13.5006C13.567 8.56767 13.6333 8.55725 13.6954 8.53377C13.7574 8.5103 13.8137 8.4743 13.8608 8.4281C13.9078 8.38189 13.9444 8.32651 13.9683 8.26553C13.9921 8.20456 14.0027 8.13933 13.9994 8.07407V7.56845C14.0027 7.50319 13.9921 7.43797 13.9683 7.37699C13.9444 7.31601 13.9078 7.26063 13.8608 7.21443C13.8137 7.16823 13.7574 7.13223 13.6954 7.10875C13.6333 7.08528 13.567 7.07486 13.5006 7.07815H0.2357Z" fill="#F8C04F"/>
</svg>
