<svg width="20" height="21" viewBox="0 0 20 21" fill="none" xmlns="http://www.w3.org/2000/svg">
<path d="M14.6875 19.38C14.8125 19.26 14.875 19.14 14.9375 19.02L20 11.4L15 14.04L15 1.2C15 0.54 14.4375 -2.43145e-07 13.75 -2.73196e-07C13.0625 -3.03248e-07 12.5 0.54 12.5 1.2L12.5 18.6C12.5 19.26 13.0625 19.8 13.75 19.8C14.125 19.8 14.4375 19.62 14.6875 19.38ZM7.5 19.8L7.5 2.4C7.5 1.74 6.9375 1.2 6.25 1.2C5.875 1.2 5.5625 1.38 5.3125 1.62C5.1875 1.74 5.125 1.86 5.0625 1.98L-4.19629e-07 9.6L5 6.96L5 19.8C5 20.46 5.5625 21 6.25 21C6.9375 21 7.5 20.46 7.5 19.8Z" fill="black"/>
</svg>
