<svg width="14" height="13" viewBox="0 0 14 13" fill="none" xmlns="http://www.w3.org/2000/svg">
<path d="M12.5449 7.92586V11.536H1.45506V7.92586C1.44349 7.53157 1.12271 7.21548 0.72753 7.21548C0.332349 7.21548 0.0115743 7.53157 0 7.92586V12.1266C0 12.6074 0.390221 13 0.868076 13H13.1319C13.6098 13 14 12.6074 14 12.1266V7.92586C13.9884 7.53157 13.6677 7.21548 13.2725 7.21548C12.8773 7.21548 12.5565 7.53157 12.5449 7.92586Z" fill="black"/>
<path d="M6.48494 0.213156L3.77324 2.94155C3.49049 3.22603 3.49049 3.69186 3.77324 3.97634C4.05598 4.26083 4.51896 4.26083 4.8017 3.97634L6.21873 2.55059V7.78777C6.21873 8.22032 6.57092 8.57302 6.99917 8.57302C7.42908 8.57302 7.77961 8.21866 7.77961 7.78777V2.55225L9.19665 3.978C9.47939 4.26249 9.94237 4.26249 10.2251 3.978C10.5079 3.69352 10.5079 3.2277 10.2251 2.94321L7.51341 0.21482C7.23066 -0.0713287 6.76769 -0.0713288 6.48494 0.213156Z" fill="black"/>
</svg>
