<svg width="25" height="25" viewBox="0 0 25 25" fill="none" xmlns="http://www.w3.org/2000/svg">
<path d="M14.3921 16.8931C14.7593 16.7917 14.9971 16.5469 15.1055 16.4874C15.2139 16.428 15.5333 16.0445 15.6685 15.7694C15.8037 15.4943 15.8783 14.8928 15.7245 14.5291C15.5706 14.1654 15.2769 13.9486 14.8432 13.7318C14.6048 13.6126 13.9424 13.4236 13.3601 13.2689V17.0879C13.9383 17.0463 14.0329 16.9923 14.3921 16.8931ZM10.7308 7.46061C9.90146 7.87965 9.65658 8.58156 9.82802 9.18402C9.95041 9.61415 10.3619 9.93819 10.7162 10.0967C10.8301 10.1477 11.1105 10.238 11.4547 10.341V7.20485C11.2309 7.25129 10.9895 7.32988 10.7308 7.46061Z" fill="#009F6A"/>
<path d="M14.8968 0.222914C6.12843 -1.40524 -1.40524 6.12843 0.222914 14.8968C1.07063 19.4622 5.53776 23.9293 10.1032 24.7771C18.8716 26.4052 26.4052 18.8716 24.7771 10.1032C23.9293 5.53776 19.4622 1.07063 14.8968 0.222914ZM17.7684 16.3586C17.4654 17.0312 16.9915 17.5202 16.7881 17.6793C16.5371 17.8994 15.4983 18.7638 13.3601 18.9305V19.6862C13.3601 19.9798 13.1486 20.3342 12.8871 20.4679C12.1735 20.8327 11.4547 20.314 11.4547 19.6355V18.8804C9.66598 18.629 8.88387 17.8415 8.60059 17.5767C8.34998 17.3424 8.01659 16.8971 7.80736 16.4664C7.72361 16.294 7.55967 15.9622 7.40172 15.4056C7.29558 15.0316 7.23081 14.679 7.23081 14.679L9.42995 14.3892L9.44394 14.5116C9.44394 14.5116 9.49989 14.7284 9.55584 14.9907C9.61179 15.2529 9.78896 15.6015 10.0035 15.9372C10.2179 16.2729 10.2693 16.3416 10.8923 16.7106C11.0251 16.7893 11.2311 16.8651 11.4547 16.9285V12.7651C10.9207 12.612 10.2835 12.4167 9.90204 12.2571C9.20265 11.9644 8.58137 11.4891 8.30161 11.1301C8.02185 10.771 7.49916 9.90243 7.63487 8.65422C7.79279 7.20124 8.76117 6.47335 8.81922 6.42637C8.89265 6.36695 9.62699 5.57572 11.4547 5.35692V4.83159C11.4547 4.53796 11.6662 4.18354 11.9277 4.0499C12.6413 3.68507 13.3601 4.20379 13.3601 4.88223V5.34926C14.6761 5.48779 15.6429 5.90569 16.1791 6.33285C16.7568 6.79316 17.0463 7.24089 17.2923 7.9024C17.4993 8.45931 17.5848 9.06655 17.5848 9.06655L15.4193 9.3622C15.4193 9.3622 15.3738 8.87657 15.1277 8.42084C14.9039 8.00644 14.5691 7.71913 14.3636 7.58362C14.1045 7.41282 13.7381 7.28962 13.3601 7.22021V10.8702C13.4104 10.8831 13.4552 10.8943 13.4928 10.9034C14.1456 11.0619 15.9547 11.6145 16.5667 11.9776C17.1159 12.3034 17.5341 12.8594 17.5341 12.8594C17.7084 13.0937 17.9697 13.5616 18.0725 14.2678C18.1753 14.9732 18.0393 15.7574 17.7684 16.3586Z" fill="#009F6A"/>
</svg>
