<svg width="16" height="14" viewBox="0 0 16 14" fill="none" xmlns="http://www.w3.org/2000/svg">
<path d="M15.8 3.53333L12.3333 0.133333C12.2 0.0666667 12.0667 1.5625e-08 11.8667 0H4.13333C4 0 3.8 0.0666666 3.66667 0.2L0.2 3.53333C0.0666667 3.66667 0 3.86667 0 4V5.33333C0 5.46667 0.0666667 5.66667 0.133333 5.73333L7.46667 13.7333C7.73333 14 8.13333 14 8.4 13.8L8.46667 13.7333L15.8 5.73333C15.9333 5.6 16 5.46667 15.9333 5.33333V4C16 3.86667 15.9333 3.66667 15.8 3.53333ZM8 9.93333L3.53333 4.06667H6.13333L6 4.6L8 7.33333L10 4.6L9.8 4.06667H12.4C12.4667 4.06667 8 9.93333 8 9.93333Z" fill="currentColor"/>
</svg>
