<svg width="31" height="32" viewBox="0 0 31 32" fill="none" xmlns="http://www.w3.org/2000/svg">
<path d="M24.0422 19.6549C24.0422 19.6549 24.0422 20.7881 23.7315 22.2271C23.4198 23.5635 22.7443 25.4157 21.2383 26.9592C19.3704 28.8622 16.6169 29.8391 13.0862 29.8391C9.6068 29.8391 6.90557 28.8622 4.9844 26.9592C3.42618 25.4157 2.75159 23.4619 2.43994 22.1255C2.07699 20.6337 2.1283 19.5025 2.1283 19.4507V13.9958C6.74975 14.0476 24.0422 14.0476 24.0422 14.0476V19.6549ZM24.0422 11.9394H2.1283C0.933981 11.9394 0 12.8655 0 14.0476V19.4479C0 19.6032 -3.851e-08 20.9396 0.362951 22.6374C0.726852 24.2327 1.60953 26.5987 3.47939 28.5008C5.76256 30.817 8.98256 32 13.0843 32C17.187 32 20.4583 30.8179 22.7414 28.5036C24.6104 26.6006 25.4427 24.3362 25.8056 22.7937C26.2208 21.1467 26.1695 19.9138 26.1695 19.7067V14.1012C26.1695 12.9182 25.2346 11.9413 24.0403 11.9413L24.0412 11.9403L24.0422 11.9394Z" fill="black"/>
<path d="M25.912 15.5393H24.7168V17.6503H25.9111C27.5206 17.6503 28.8708 17.4959 28.8708 19.0902V21.9175C28.8708 23.5118 27.5206 24.8491 25.9111 24.8491H24.1448C23.9377 25.5174 23.6783 26.2383 23.3144 26.9583H25.9111C27.2601 26.956 28.5531 26.4242 29.507 25.4794C30.4609 24.5345 30.9977 23.2537 31 21.9175V19.0893C31 16.311 30.1164 15.5402 25.9111 15.5402L25.912 15.5393ZM7.27042 10.7046C6.85426 10.7046 6.49036 10.4985 6.33454 10.138C6.27249 10.0165 6.23536 9.88408 6.22529 9.74829C6.21523 9.61251 6.23242 9.47609 6.27589 9.34692C6.31935 9.21776 6.38823 9.09841 6.47853 8.99576C6.56883 8.89311 6.67878 8.80921 6.802 8.7489C6.95783 8.64631 7.52886 8.28679 7.58111 7.87551C7.63337 7.46423 7.26947 6.89671 6.59487 6.33202C5.34925 5.25158 4.77822 4.12032 4.88083 2.93729C5.03666 1.23758 6.59487 0.262547 6.7488 0.159021C6.86718 0.0847586 6.99957 0.0350904 7.13792 0.0130286C7.27626 -0.00903315 7.41769 -0.00302868 7.55363 0.0306778C7.68957 0.0643844 7.81717 0.12509 7.92871 0.209114C8.04025 0.293138 8.1334 0.398728 8.2025 0.519481C8.27738 0.636731 8.32746 0.767807 8.34973 0.90478C8.372 1.04175 8.36599 1.18178 8.33206 1.31638C8.29813 1.45099 8.23699 1.57738 8.15234 1.68791C8.06768 1.79844 7.96128 1.89081 7.83955 1.95944C7.83955 1.95944 7.00818 2.47425 6.95593 3.14247C6.90462 3.75986 7.47565 4.37725 7.94406 4.78948C9.24195 5.9198 9.81298 7.052 9.65715 8.18326C9.44907 9.77757 7.89181 10.6001 7.73504 10.6528C7.58111 10.6528 7.42529 10.7046 7.26947 10.7046H7.27042ZM13.7076 11.0133C13.2924 11.0133 12.9285 10.8081 12.7726 10.4467C12.7106 10.3252 12.6735 10.1928 12.6634 10.057C12.6533 9.9212 12.6705 9.78479 12.714 9.65562C12.7575 9.52646 12.8263 9.4071 12.9166 9.30446C13.0069 9.20181 13.1169 9.11791 13.2401 9.05759C13.3959 8.95501 13.967 8.59549 14.0192 8.18326C14.0705 7.77198 13.7076 7.20635 13.032 6.63978C11.7874 5.56028 11.2154 4.42808 11.3189 3.24599C11.4748 1.54628 13.032 0.570303 13.1869 0.467718C13.3053 0.393456 13.4377 0.343787 13.576 0.321726C13.7144 0.299664 13.8558 0.305668 13.9917 0.339375C14.1277 0.373081 14.2553 0.433788 14.3668 0.517811C14.4784 0.601835 14.5715 0.707425 14.6406 0.828178C14.7154 0.945485 14.7655 1.07661 14.7877 1.21362C14.8099 1.35064 14.8038 1.49069 14.7698 1.6253C14.7357 1.75991 14.6745 1.88629 14.5898 1.99678C14.505 2.10728 14.3985 2.19959 14.2767 2.26814C14.2767 2.26814 13.4463 2.78295 13.395 3.45116C13.3418 4.06856 13.9138 4.68595 14.3812 5.09817C15.6791 6.23038 16.2511 7.36164 16.0972 8.49196C15.8881 10.0872 14.3309 10.9088 14.175 10.9615C14.0202 10.9615 13.8643 11.0133 13.7076 11.0133ZM19.3172 11.0133C18.901 11.0133 18.538 10.8081 18.3822 10.4467C18.3202 10.3252 18.2831 10.1928 18.273 10.057C18.2629 9.9212 18.2801 9.78479 18.3236 9.65562C18.367 9.52646 18.4359 9.4071 18.5262 9.30446C18.6165 9.20181 18.7265 9.11791 18.8497 9.05759C19.0055 8.95501 19.5765 8.59549 19.6288 8.18326C19.6801 7.77198 19.3172 7.20635 18.6416 6.63978C17.3969 5.56028 16.825 4.42808 16.9285 3.24599C17.0843 1.54628 18.6416 0.570303 18.7965 0.467718C18.9149 0.393456 19.0473 0.343787 19.1856 0.321726C19.324 0.299664 19.4654 0.305668 19.6013 0.339375C19.7373 0.373081 19.8649 0.433788 19.9764 0.517811C20.0879 0.601835 20.1811 0.707425 20.2502 0.828178C20.325 0.945485 20.3751 1.07661 20.3973 1.21362C20.4195 1.35064 20.4134 1.49069 20.3793 1.6253C20.3453 1.75991 20.2841 1.88629 20.1993 1.99678C20.1146 2.10728 20.0081 2.19959 19.8863 2.26814C19.8863 2.26814 19.0559 2.78295 19.0036 3.45116C18.9514 4.06856 19.5233 4.68595 19.9899 5.09817C21.2887 6.23038 21.8597 7.36164 21.7039 8.49196C21.4968 10.0872 19.9385 10.9088 19.7827 10.9615C19.6288 10.9615 19.472 11.0133 19.3172 11.0133Z" fill="black"/>
</svg>
